<svg width="124" height="149" viewBox="0 0 124 149" fill="none" xmlns="http://www.w3.org/2000/svg">
<path d="M50.875 0.71875C44.7312 0.71875 39.75 6.0078 39.75 12.5312V18.4375H38.6364L0.8125 24.3438V33.2031H123.188V24.3438L85.3636 18.4375H84.25V12.5312C84.25 6.0078 79.2688 0.71875 73.125 0.71875H50.875ZM50.875 12.5312H73.125V18.4375H50.875V12.5312ZM6.375 39.1094L13.8876 137.514C14.3549 143.648 19.1839 148.375 24.98 148.375H99.0254C104.822 148.375 109.642 143.654 110.112 137.52L117.413 42.0625L6.375 39.1094ZM28.625 59.7812C31.6983 59.7812 34.1875 62.4243 34.1875 65.6875V133.609H25.8438L23.0625 65.6875C23.0625 62.4243 25.5517 59.7812 28.625 59.7812ZM62 59.7812C66.6085 59.7812 70.3438 63.7473 70.3438 68.6406V133.609H53.6562V68.6406C53.6562 63.7473 57.3915 59.7812 62 59.7812ZM95.375 59.7812C98.4483 59.7812 100.938 62.4243 100.938 65.6875L98.1562 133.609H89.8125V65.6875C89.8125 62.4243 92.3017 59.7812 95.375 59.7812Z" fill="white"/>
</svg>
